<?xml version="1.0" encoding="utf-8"?>
<!-- Generator: Adobe Illustrator 16.0.0, SVG Export Plug-In . SVG Version: 6.00 Build 0)  -->
<!DOCTYPE svg PUBLIC "-//W3C//DTD SVG 1.1//EN" "http://www.w3.org/Graphics/SVG/1.1/DTD/svg11.dtd">
<svg version="1.1" xmlns="http://www.w3.org/2000/svg" xmlns:xlink="http://www.w3.org/1999/xlink" x="0px" y="0px"
	 width="382.677px" height="246.614px" viewBox="0 0 382.677 246.614" enable-background="new 0 0 382.677 246.614"
	 xml:space="preserve">
<g id="레이어_1_사본">
</g>
<g id="레이어_2">
	<ellipse fill-rule="evenodd" clip-rule="evenodd" fill="#FFFFFF" cx="191.339" cy="123.307" rx="187.5" ry="122.222"/>
	<path fill-rule="evenodd" clip-rule="evenodd" fill="#8DC63F" d="M256.829,97.26c4.729,0,8.564-3.747,8.564-8.371
		c0-4.607-3.835-8.368-8.564-8.368c-4.716,0-8.565,3.761-8.565,8.368C248.263,93.513,252.113,97.26,256.829,97.26"/>
	<path fill-rule="evenodd" clip-rule="evenodd" fill="#8DC63F" d="M284.044,113.924c1.812,2.681,3.546,5.243,4.959,7.364
		c7.519,3.594,12.745,11.247,12.745,20.127c0,12.308-10.014,22.327-22.325,22.327c-12.314,0-22.332-10.019-22.332-22.327
		c0-0.464,0.044-0.927,0.077-1.373h-1.178c-0.229,0.366-1.91,3.085-3.988,6.472c2.393,12.963,13.771,22.811,27.421,22.811
		c15.386,0,27.903-12.519,27.903-27.911C307.327,127.604,297.244,116.132,284.044,113.924"/>
	<path fill-rule="evenodd" clip-rule="evenodd" fill="#8DC63F" d="M242.116,160.315l13.209-21.465h28.614
		c3.303,0,11.418-5.649,7.287-12.117c0,0-18.021-26.973-19.528-28.479c-1.516-1.504-6.198-2.897-10.33-0.144
		c-3.244,2.166-10.031,17.459-10.031,17.459s-7.705,0.146-10.058,0c-2.323-0.131-3.022,7.848-0.132,7.848h14.034l5.231-9.069
		l10.867,16.643H249.13l-17.335,29.323c-0.982,1.785-0.825,4.368,2.576,4.368C237.759,164.683,239.826,163.206,242.116,160.315"/>
	<rect x="231.751" y="119.141" fill-rule="evenodd" clip-rule="evenodd" fill="#8DC63F" width="24.94" height="6.919"/>
	<polygon fill-rule="evenodd" clip-rule="evenodd" fill="#8DC63F" points="234.522,119.515 231.829,121.406 217.304,100.669 
		220.004,98.767 	"/>
	<path fill-rule="evenodd" clip-rule="evenodd" fill="#89BF44" d="M115.149,187.724c21.97,8.268,48.978,13.102,77.804,13.102
		c75.991,0,137.668-33.457,137.668-74.98c0-21.166-19.55-48.78-69.337-48.78c-36.08,0-67.525,15.924-67.525,35.477
		c0,3.425,2.015,7.257,4.637,9.876c4.032,4.636,5.24,10.279,5.24,15.521c0,23.986-35.678,43.338-79.619,43.338
		c-29.026,0-55.632-8.063-68.735-21.164C44.8,149.63,41.375,137.737,41.375,125.845C41.375,80.087,109.303,43,192.954,43
		c83.852,0,151.781,37.088,151.781,82.846c0,45.753-67.93,82.843-151.781,82.843c-33.057,0-63.694-5.846-88.49-15.52
		L115.149,187.724z"/>
	<path fill-rule="evenodd" clip-rule="evenodd" fill="#388841" d="M114.149,180.941c21.97,8.267,48.979,13.102,77.804,13.102
		c75.991,0,137.668-33.458,137.668-74.98c0-21.166-19.55-48.78-69.337-48.78c-36.08,0-67.525,15.924-67.525,35.477
		c0,3.425,2.015,7.257,4.637,9.876c4.032,4.636,5.24,10.279,5.24,15.521c0,23.986-35.678,43.337-79.619,43.337
		c-29.026,0-55.632-8.063-68.735-21.163c-10.482-10.483-13.907-22.375-13.907-34.268c0-45.758,67.927-82.846,151.578-82.846
		c83.852,0,151.781,37.088,151.781,82.846c0,45.754-67.93,82.844-151.781,82.844c-33.057,0-63.694-5.846-88.49-15.521
		L114.149,180.941z"/>
	<g>
		<polygon fill-rule="evenodd" clip-rule="evenodd" fill="#FFFFFF" points="118.204,147.785 105.654,147.785 103.876,106.565 
			77.285,147.785 64.716,147.785 64.606,79.841 80.301,79.841 79.308,122.688 106.287,79.841 117.559,79.841 118.729,122.688 
			143.651,79.841 159.346,79.841 		"/>
		<path fill-rule="evenodd" clip-rule="evenodd" fill="#FFFFFF" d="M169.613,148.332l0.232-12.058h-18.973l-6.651,12.058h-18.191
			l40.958-68.122h17.947l2.879,68.122H169.613z M170.772,100.283l-13.986,24.792h13.691L170.772,100.283z"/>
	</g>
	
		<ellipse fill-rule="evenodd" clip-rule="evenodd" fill="none" stroke="#89BF44" stroke-width="2" cx="191.339" cy="123.307" rx="187.5" ry="122.222"/>
	<g>
		<path d="M52.121,172.104l3.759,2.735c-2.321,5.233-3.951,8.883-4.891,10.949c-0.651,1.42-1.286,2.772-1.905,4.058l0.044,0.032
			l0.674-0.693c1.107-1.088,2.217-2.163,3.328-3.226c1.953-1.847,4.587-4.305,7.901-7.371l3.692,2.687
			c-2.382,5.256-4.022,8.842-4.921,10.758c-0.623,1.352-1.292,2.735-2.007,4.153l0.088,0.064c0.833-0.836,1.874-1.815,3.119-2.938
			c1.781-1.611,4.82-4.315,9.115-8.11l3.604,2.622l-17.702,14.24l-3.405-2.479c2.287-5.031,3.826-8.387,4.619-10.064
			c0.871-1.846,1.824-3.745,2.861-5.696l-0.022-0.016c-1.646,1.643-3.13,3.077-4.45,4.303c-1.458,1.352-4.236,3.884-8.335,7.597
			l-3.294-2.397L52.121,172.104z"/>
		<path fill="#454545" d="M87.468,198.992l-9.77-5.156l-2.119,4.015l8.947,4.722l-1.749,3.313l-8.947-4.723l-2.604,4.934
			l10.181,5.373l-1.761,3.337l-13.978-7.377l10.007-18.959l13.566,7.16L87.468,198.992z"/>
		<path fill="#454545" d="M92.475,197.121l9.753,3.89c2.099,0.837,3.429,2.055,3.99,3.651c0.438,1.215,0.397,2.475-0.123,3.778
			c-0.5,1.253-1.194,2.134-2.084,2.643c-0.484,0.277-1.126,0.463-1.929,0.556l-0.01,0.025c0.928,0.821,1.464,1.79,1.607,2.907
			c0.126,0.914-0.037,1.938-0.489,3.072c-0.311,0.779-0.775,1.478-1.394,2.094c-0.572,0.597-1.221,1.044-1.948,1.343
			c-0.876,0.377-1.709,0.545-2.498,0.505c-1.06-0.049-2.487-0.432-4.282-1.147l-8.534-3.403L92.475,197.121z M89.803,215.19
			l5.232,2.087c1.016,0.404,1.873,0.472,2.569,0.2c0.738-0.275,1.309-0.921,1.714-1.937c0.317-0.796,0.259-1.535-0.175-2.219
			c-0.366-0.559-0.947-0.996-1.743-1.313l-5.461-2.178L89.803,215.19z M93.267,206.504l5.055,2.016
			c0.829,0.331,1.561,0.416,2.194,0.257c0.714-0.167,1.216-0.614,1.506-1.342c0.324-0.813,0.291-1.493-0.099-2.042
			c-0.335-0.486-0.995-0.926-1.977-1.317l-4.927-1.965L93.267,206.504z"/>
		<path d="M118.657,228.923l-4.461-1.097l12.473-19.01l4.886,1.201l2.132,22.6l-4.567-1.122l-0.296-4.635l-7.674-1.887
			L118.657,228.923z M123.198,221.677l5.284,1.299l-0.552-8.865l-0.08-0.02L123.198,221.677z"/>
		<path fill="#454545" d="M153.766,221.347c-0.112-1.068-0.345-1.889-0.699-2.46c-0.636-1.02-1.71-1.646-3.224-1.881
			c-1.351-0.208-2.55,0.087-3.595,0.884c-1.384,1.078-2.28,2.94-2.689,5.589c-0.317,2.054-0.178,3.782,0.417,5.184
			c0.675,1.598,1.887,2.532,3.635,2.802c1.189,0.184,2.214-0.009,3.077-0.576c0.88-0.565,1.556-1.476,2.026-2.73l4.351,0.671
			c-0.859,2.34-2.114,4.073-3.764,5.202c-1.795,1.235-3.927,1.662-6.395,1.281c-2.847-0.439-4.962-1.734-6.345-3.885
			c-1.46-2.254-1.916-5.155-1.368-8.705c0.542-3.513,1.876-6.119,4.001-7.82c2.001-1.609,4.388-2.2,7.163-1.772
			c2.792,0.432,4.885,1.631,6.278,3.598c1.116,1.611,1.609,3.375,1.479,5.292L153.766,221.347z"/>
		<path fill="#454545" d="M175.614,223.38c-0.2-1.056-0.5-1.854-0.901-2.394c-0.718-0.964-1.84-1.5-3.367-1.607
			c-1.363-0.097-2.534,0.297-3.51,1.178c-1.29,1.188-2.028,3.119-2.218,5.792c-0.146,2.073,0.136,3.783,0.845,5.131
			c0.806,1.537,2.09,2.367,3.854,2.492c1.199,0.084,2.206-0.191,3.019-0.829c0.83-0.636,1.429-1.599,1.793-2.889l4.392,0.31
			c-0.663,2.402-1.77,4.233-3.32,5.495c-1.688,1.379-3.776,1.981-6.268,1.806c-2.873-0.203-5.088-1.318-6.644-3.347
			c-1.642-2.126-2.335-4.979-2.083-8.563c0.25-3.546,1.363-6.254,3.341-8.125c1.86-1.769,4.191-2.555,6.991-2.357
			c2.819,0.198,5.004,1.221,6.555,3.065c1.246,1.514,1.883,3.23,1.912,5.151L175.614,223.38z"/>
		<path fill="#454545" d="M199.418,220.314l-11.046,0.117l0.048,4.539l10.116-0.107l0.04,3.746l-10.117,0.106l0.06,5.578
			l11.511-0.122l0.04,3.773l-15.804,0.167l-0.227-21.437l15.34-0.162L199.418,220.314z"/>
		<path fill="#454545" d="M207.807,230.931c0.086,0.853,0.396,1.532,0.93,2.039c0.811,0.777,2.07,1.099,3.778,0.964
			c1.218-0.097,2.177-0.346,2.876-0.748c0.908-0.528,1.324-1.293,1.246-2.293c-0.061-0.763-0.461-1.325-1.203-1.688
			c-0.532-0.251-1.453-0.462-2.766-0.633l-2.28-0.396c-1.148-0.185-1.992-0.337-2.532-0.459c-0.877-0.224-1.604-0.505-2.178-0.844
			c-0.711-0.419-1.256-0.961-1.637-1.626c-0.426-0.753-0.682-1.684-0.77-2.792c-0.146-1.634,0.225-3.063,1.116-4.284
			c1.255-1.708,3.372-2.68,6.353-2.915c2.817-0.222,5.018,0.438,6.602,1.976c1.188,1.15,1.867,2.578,2.039,4.283l-4.117,0.324
			c-0.173-0.809-0.479-1.434-0.915-1.875c-0.792-0.761-2.005-1.076-3.641-0.947c-0.964,0.076-1.757,0.321-2.383,0.736
			c-0.765,0.518-1.111,1.212-1.042,2.084c0.054,0.691,0.341,1.198,0.859,1.523c0.309,0.195,0.797,0.358,1.465,0.488l0.057,0.022
			l5.201,0.907c1.722,0.267,3.019,0.713,3.891,1.339c1.201,0.856,1.872,2.175,2.012,3.955c0.214,2.708-0.777,4.743-2.975,6.104
			c-1.342,0.837-2.903,1.326-4.684,1.467c-3.363,0.265-5.865-0.406-7.51-2.015c-1.169-1.132-1.822-2.589-1.963-4.37L207.807,230.931
			z"/>
		<path fill="#454545" d="M229.125,228.766c0.152,0.844,0.515,1.496,1.086,1.959c0.87,0.711,2.15,0.933,3.844,0.663
			c1.205-0.191,2.143-0.515,2.808-0.972c0.864-0.599,1.219-1.393,1.062-2.384c-0.12-0.756-0.564-1.285-1.332-1.588
			c-0.55-0.207-1.485-0.346-2.807-0.412l-2.305-0.216c-1.159-0.093-2.012-0.179-2.561-0.258c-0.892-0.153-1.638-0.377-2.238-0.669
			c-0.74-0.362-1.326-0.859-1.76-1.492c-0.482-0.717-0.811-1.625-0.985-2.723c-0.275-1.618-0.017-3.071,0.774-4.359
			c1.117-1.802,3.152-2.937,6.104-3.406c2.79-0.442,5.036,0.041,6.737,1.45c1.273,1.053,2.063,2.423,2.368,4.108l-4.077,0.648
			c-0.237-0.793-0.591-1.393-1.061-1.798c-0.85-0.695-2.084-0.915-3.704-0.657c-0.954,0.151-1.728,0.459-2.317,0.921
			c-0.721,0.576-1.013,1.296-0.875,2.16c0.107,0.685,0.434,1.168,0.977,1.451c0.322,0.17,0.822,0.294,1.5,0.371l0.058,0.019
			l5.256,0.494c1.737,0.13,3.065,0.473,3.983,1.028c1.266,0.759,2.038,2.021,2.318,3.785c0.426,2.683-0.402,4.789-2.485,6.319
			c-1.272,0.94-2.79,1.551-4.554,1.831c-3.332,0.528-5.879,0.057-7.646-1.417c-1.254-1.037-2.021-2.438-2.301-4.202L229.125,228.766
			z"/>
		<path fill="#454545" d="M252.932,231.004l-4.27,0.953l-4.668-20.923l4.27-0.953L252.932,231.004z"/>
		<path fill="#454545" d="M253.221,209.021l10.07-2.975c2.168-0.641,3.965-0.507,5.394,0.402c1.095,0.684,1.843,1.698,2.239,3.044
			c0.383,1.294,0.381,2.416-0.003,3.366c-0.208,0.518-0.599,1.061-1.173,1.629l0.008,0.026c1.238,0.072,2.258,0.502,3.063,1.291
			c0.664,0.641,1.169,1.546,1.516,2.717c0.236,0.805,0.303,1.641,0.198,2.508c-0.08,0.822-0.313,1.575-0.7,2.26
			c-0.456,0.838-1.006,1.485-1.65,1.941c-0.863,0.616-2.223,1.198-4.075,1.746l-8.811,2.604L253.221,209.021z M259.647,215.905
			l5.218-1.542c0.856-0.253,1.483-0.638,1.883-1.155c0.458-0.572,0.576-1.234,0.354-1.986c-0.248-0.839-0.695-1.353-1.34-1.543
			c-0.565-0.175-1.355-0.112-2.369,0.187l-5.087,1.504L259.647,215.905z M262.296,224.874l5.401-1.597
			c1.049-0.31,1.764-0.787,2.144-1.432c0.409-0.672,0.46-1.532,0.149-2.582c-0.242-0.821-0.746-1.366-1.51-1.635
			c-0.633-0.212-1.359-0.197-2.182,0.046l-5.638,1.666L262.296,224.874z"/>
		<path fill="#454545" d="M285.729,220.96l-4.094,1.542l-7.553-20.063l4.094-1.542L285.729,220.96z"/>
		<path fill="#454545" d="M294.116,213.272l9.393-4.314l1.621,3.528l-13.368,6.141l-8.948-19.481l3.977-1.826L294.116,213.272z"/>
		<path fill="#454545" d="M313.672,207.727l-3.822,2.129l-10.43-18.729l3.822-2.129L313.672,207.727z"/>
		<path fill="#454545" d="M327.391,199.038l-3.614,2.465l-9.937-14.571l-5.332,3.636l-2.141-3.14l14.277-9.736l2.142,3.14
			l-5.331,3.636L327.391,199.038z"/>
		<path fill="#454545" d="M344.738,184.931l-3.224,2.957l-5.471-5.965l-14.48-4.827l3.789-3.475l9.664,3.863L331.7,167.8
			l3.629-3.326l3.994,14.553L344.738,184.931z"/>
	</g>
	<path fill="#398841" d="M40.375,27.233"/>
	<g>
		<g>
			<path fill="#398841" d="M71.194,51.139c-1.391-3.474-2.751-5.913-3.939-7.897l-8.299,4.965l-1.521-2.541l11.435-6.842
				l1.086,1.815c1.289,2.154,2.911,4.864,4.508,8.904L71.194,51.139z M71.122,54.961c2.104-1.357,4.188-2.802,6.069-4.256
				l1.545,2.198c-4.048,3.474-8.96,6.544-12.805,8.878l-1.854-2.44c1.23-0.736,2.582-1.544,3.966-2.406l-3.939-6.583l3.136-1.876
				L71.122,54.961z M82.585,43.402l-2.991,1.79l6.371,10.648l-3.184,1.906L69.444,35.458l3.185-1.906L78,42.53l2.992-1.79
				L82.585,43.402z"/>
			<path fill="#398841" d="M100.584,27.057l-14.225,5.467l-1.052-2.738l5.354-2.057l-0.87-2.264l3.491-1.342l0.87,2.264l5.38-2.067
				L100.584,27.057z M97.195,39.477c-3.464,1.332-6.629,0.463-7.651-2.195c-1.012-2.632,0.757-5.396,4.222-6.728
				c3.491-1.341,6.629-0.463,7.641,2.169C102.428,35.381,100.686,38.135,97.195,39.477z M96.183,36.845
				c1.548-0.595,2.392-1.614,1.917-2.851c-0.465-1.211-1.774-1.403-3.323-0.808c-1.575,0.605-2.392,1.614-1.926,2.825
				C93.326,37.248,94.608,37.45,96.183,36.845z M93.623,42.723l16.115-6.193l3.106,8.081l-3.464,1.331l-2.034-5.291l-12.65,4.862
				L93.623,42.723z M110.218,28.219l-3.202,1.23l2.337,6.08l-3.464,1.332l-5.837-15.188l3.464-1.332l2.397,6.238l3.202-1.23
				L110.218,28.219z"/>
			<path fill="#398841" d="M129.54,15.941c1.82,7.741,0.706,14.666-7.221,21.109l-2.559-2.411c5.7-4.615,7.562-9.225,6.765-14.947
				l-8.399,1.977l-0.678-2.882L129.54,15.941z M136.417,11.542l5.945,25.282l-3.639,0.856l-5.945-25.282L136.417,11.542z"/>
			<path fill="#398841" d="M162.167,21.103l0.189,1.653l6.984-0.797l0.766,6.696l-14.08,1.607l0.167,1.457l14.751-1.684l0.316,2.773
				L152.85,34.91l-0.775-6.78l14.108-1.61l-0.16-1.401l-14.136,1.614l-0.314-2.746l7.097-0.81l-0.189-1.653l-9.751,1.113
				l-0.333-2.914l23.245-2.653l0.333,2.914L162.167,21.103z M169.143,16.276c-4.496,0.031-7.873-1.287-9.763-3.455
				c-1.352,2.538-4.372,4.586-8.76,5.569l-1.519-2.637c5.719-1.22,8.215-4.145,7.93-6.638l-0.054-0.476l3.799-0.434l0.055,0.476
				c0.285,2.494,3.376,4.78,9.224,4.68L169.143,16.276z"/>
			<path fill="#398841" d="M193.336,21.088c-2.82-0.904-4.776-2.719-5.922-4.993c-1.1,2.633-3.132,4.767-6.13,5.81l-1.91-2.915
				c4.091-1.476,5.942-4.793,6.025-8.037L180.313,11l-0.027-2.989l13.912-0.128l0.027,2.989l-5.031,0.046
				c0.141,2.96,1.967,5.989,5.914,7.25L193.336,21.088z M201.347,27.274c0.029,3.158-3.327,5.022-8.808,5.073
				c-5.509,0.051-8.898-1.751-8.928-4.909s3.327-5.022,8.836-5.073C197.928,22.314,201.319,24.116,201.347,27.274z M197.637,27.309
				c-0.014-1.466-1.791-2.155-5.163-2.124c-3.401,0.031-5.165,0.753-5.151,2.219s1.79,2.155,5.191,2.124
				C195.887,29.497,197.651,28.775,197.637,27.309z M197.389,12.562l-0.058-6.26l3.71-0.034l0.143,15.453l-3.71,0.034l-0.058-6.175
				l-3.878,0.036l-0.028-3.017L197.389,12.562z"/>
			<path fill="#398841" d="M233.133,28.884l-0.304,3.002l-23.326-2.354l0.304-3.002l9.789,0.988l0.479-4.742l-7.328-0.74
				l1.365-13.497l3.664,0.37l-0.406,4.013l11.021,1.112l0.405-4.013l3.637,0.367l-1.365,13.498l-7.301-0.737l-0.479,4.742
				L233.133,28.884z M216.709,19.459l11.021,1.112l0.365-3.62l-11.02-1.112L216.709,19.459z"/>
			<path fill="#398841" d="M264.062,28.567l-0.624,2.837l-22.866-5.034l0.624-2.837l9.607,2.115l0.346-1.57l-6.753-1.487
				l2.387-10.852l17.403,3.831l-0.605,2.754l-13.808-3.04l-0.291,1.322l13.231,2.912l-0.582,2.644L248.9,19.252l-0.303,1.377
				l14,3.082l-0.605,2.754l-7.22-1.589l-0.346,1.57L264.062,28.567z M259.584,36.1c-0.594,2.699-4.126,3.452-9.698,2.225
				c-5.546-1.22-8.437-3.387-7.843-6.086c0.6-2.727,4.127-3.452,9.672-2.231C257.288,31.234,260.184,33.373,259.584,36.1z
				 M255.934,35.296c0.229-1.046-1.293-1.844-4.807-2.617c-3.486-0.768-5.202-0.683-5.433,0.363
				c-0.23,1.047,1.286,1.872,4.772,2.639C253.981,36.454,255.704,36.343,255.934,35.296z"/>
			<path fill="#398841" d="M289.143,46.867l-1.016,2.781l-16.799-6.133l2.873-7.868l3.486,1.273l-1.857,5.086L289.143,46.867z
				 M284.04,36.988c-2.355-1.911-3.547-4.387-3.771-7.051c-2.009,2.059-4.636,3.351-7.82,3.299l-0.754-3.428
				c4.545,0.098,7.536-2.683,8.716-5.914l0.871-2.384l3.539,1.292l-0.871,2.384c-1.17,3.205-0.621,6.948,2.876,9.666L284.04,36.988z
				 M289.774,43.254l-3.514-1.283l6.491-17.774l3.514,1.283L289.774,43.254z"/>
			<path fill="#398841" d="M318.815,57.384l-8.654-4.916l-3.998,7.038l-3.227-1.833l3.998-7.038l-8.507-4.832l1.463-2.575
				l20.387,11.581L318.815,57.384z M319.069,51.302l-15.645-8.887l5.685-10.005l3.202,1.819l-1.463,2.575l9.265,5.262l1.463-2.574
				l3.178,1.805L319.069,51.302z M318.678,44.592l-9.265-5.263l-1.324,2.33l9.265,5.263L318.678,44.592z"/>
		</g>
	</g>
</g>
</svg>
